<?xml version="1.0" encoding="utf-8"?>
<!-- Generator: Adobe Illustrator 26.0.0, SVG Export Plug-In . SVG Version: 6.00 Build 0)  -->
<svg version="1.1" id="Layer_1" xmlns="http://www.w3.org/2000/svg" xmlns:xlink="http://www.w3.org/1999/xlink" x="0px" y="0px"
	 width="16px" height="16px" viewBox="0 0 16 16" enable-background="new 0 0 16 16" xml:space="preserve">
<path fill="#206DDF" d="M13.1,5.6c-0.2-0.1-0.3-0.1-0.5-0.2c0-0.1,0.1-0.2,0.1-0.3c0.4-1.9,0.1-3.4-0.7-3.9c-0.8-0.5-2.2,0-3.5,1.2
	C8.3,2.5,8.1,2.6,8,2.8C7.9,2.7,7.8,2.6,7.7,2.5C6.3,1.3,4.9,0.7,4,1.2C3.2,1.7,3,3.1,3.3,4.9c0,0.2,0.1,0.3,0.1,0.5
	C3.2,5.4,3,5.5,2.9,5.6C1.2,6.2,0,7.1,0,8c0,1,1.3,2,3,2.5c0.1,0,0.3,0.1,0.4,0.1c0,0.2-0.1,0.4-0.1,0.6C3,13,3.2,14.4,4.1,14.8
	c0.8,0.5,2.3,0,3.6-1.2c0.1-0.1,0.2-0.2,0.3-0.3c0.1,0.1,0.3,0.3,0.4,0.4c1.3,1.1,2.7,1.6,3.5,1.1c0.8-0.5,1.1-2,0.8-3.8
	c0-0.1-0.1-0.3-0.1-0.4c0.1,0,0.2-0.1,0.3-0.1C14.7,10,16,9,16,8C16,7.1,14.8,6.1,13.1,5.6L13.1,5.6z M8.8,2.9
	c1.2-1,2.2-1.4,2.7-1.1c0.5,0.3,0.7,1.5,0.4,3.1c0,0.1,0,0.2-0.1,0.3C11.2,5.1,10.5,5,9.8,4.9C9.4,4.3,9,3.8,8.5,3.2
	C8.6,3.1,8.7,3,8.8,2.9z M4.8,8.8c0.1,0.3,0.3,0.5,0.4,0.8c0.2,0.3,0.3,0.5,0.5,0.8c-0.5-0.1-1-0.1-1.4-0.2C4.4,9.8,4.6,9.3,4.8,8.8
	L4.8,8.8z M4.8,7.2C4.6,6.8,4.4,6.3,4.3,5.9c0.4-0.1,0.9-0.2,1.4-0.2C5.5,5.9,5.4,6.2,5.2,6.4C5.1,6.7,4.9,7,4.8,7.2L4.8,7.2z
	 M5.1,8c0.2-0.4,0.4-0.9,0.7-1.3C6,6.3,6.3,5.9,6.6,5.5C7,5.5,7.5,5.5,8,5.5s1,0,1.4,0.1c0.3,0.4,0.5,0.8,0.8,1.2
	c0.2,0.4,0.5,0.8,0.7,1.3c-0.2,0.4-0.4,0.9-0.7,1.3c-0.2,0.4-0.5,0.8-0.8,1.2c-0.5,0-0.9,0.1-1.4,0.1s-1,0-1.4,0
	C6.3,10.1,6,9.7,5.8,9.3C5.6,8.9,5.3,8.5,5.1,8L5.1,8z M10.8,9.6c0.2-0.3,0.3-0.6,0.5-0.8c0.2,0.5,0.4,0.9,0.5,1.4
	c-0.5,0.1-1,0.2-1.5,0.2C10.5,10.2,10.6,9.9,10.8,9.6L10.8,9.6z M11.2,7.2c-0.1-0.3-0.3-0.6-0.5-0.8c-0.2-0.3-0.3-0.5-0.5-0.8
	c0.5,0.1,1,0.1,1.4,0.2C11.6,6.3,11.4,6.8,11.2,7.2z M8,3.7c0.3,0.4,0.6,0.7,0.9,1.1c-0.6,0-1.2,0-1.9,0C7.4,4.4,7.7,4.1,8,3.7z
	 M4.4,1.8C4.9,1.5,6.1,1.9,7.3,3c0.1,0.1,0.2,0.1,0.2,0.2C7.1,3.8,6.6,4.3,6.2,4.9C5.5,5,4.8,5.1,4.1,5.2C4.1,5.1,4,4.9,4,4.7
	C3.7,3.2,3.9,2.1,4.4,1.8L4.4,1.8z M3.6,10C3.5,10,3.4,10,3.2,9.9c-0.7-0.2-1.4-0.5-2-1C0.9,8.7,0.7,8.4,0.7,8c0-0.6,1-1.3,2.4-1.8
	C3.3,6.1,3.4,6.1,3.6,6c0.2,0.7,0.5,1.3,0.8,2C4.1,8.7,3.8,9.4,3.6,10z M7.3,13.1c-0.5,0.5-1.1,0.8-1.8,1.1c-0.3,0.2-0.7,0.2-1.1,0
	C3.9,14,3.7,12.9,4,11.4C4,11.2,4,11,4.1,10.9c0.7,0.1,1.4,0.3,2.1,0.3c0.4,0.6,0.9,1.1,1.3,1.7C7.5,12.9,7.4,13,7.3,13.1L7.3,13.1z
	 M8,12.3c-0.3-0.3-0.6-0.7-0.9-1.1c0.3,0,0.6,0,0.9,0c0.3,0,0.6,0,1,0C8.7,11.6,8.4,12,8,12.3z M12.1,13.3c0,0.4-0.2,0.7-0.5,1
	c-0.5,0.3-1.6-0.1-2.7-1.1c-0.1-0.1-0.3-0.2-0.4-0.4c0.5-0.5,0.9-1.1,1.3-1.7c0.7-0.1,1.4-0.2,2.1-0.3c0,0.1,0.1,0.3,0.1,0.4
	C12.2,11.9,12.2,12.6,12.1,13.3L12.1,13.3z M12.7,9.9c-0.1,0-0.2,0.1-0.3,0.1c-0.2-0.7-0.5-1.3-0.8-2c0.3-0.6,0.6-1.3,0.8-2
	c0.2,0,0.3,0.1,0.5,0.1c1.5,0.5,2.5,1.2,2.5,1.8C15.3,8.6,14.2,9.4,12.7,9.9z M8,6.6c0.8,0,1.4,0.6,1.4,1.4c0,0.8-0.6,1.4-1.4,1.4
	S6.6,8.8,6.6,8S7.2,6.6,8,6.6"/>
</svg>
